<?xml version="1.0" standalone="no"?>
<!DOCTYPE svg PUBLIC "-//W3C//DTD SVG 20010904//EN"
 "http://www.w3.org/TR/2001/REC-SVG-20010904/DTD/svg10.dtd">
<svg version="1.0" xmlns="http://www.w3.org/2000/svg"
 width="1001.000000pt" height="1001.000000pt" viewBox="0 0 1001.000000 1001.000000"
 preserveAspectRatio="xMidYMid meet">
<metadata>
Created by potrace 1.14, written by Peter Selinger 2001-2017
</metadata>
<g transform="translate(0.000000,1001.000000) scale(0.100000,-0.100000)"
fill="#000000" stroke="none">
<path d="M4785 9473 c-618 -36 -1158 -163 -1692 -399 -1218 -538 -2161 -1575
-2582 -2840 -275 -826 -315 -1723 -115 -2581 150 -649 459 -1293 873 -1823
102 -130 251 -302 267 -307 6 -2 69 117 141 264 760 1556 1054 2160 1530 3138
1360 2793 1411 2898 1859 3844 205 432 320 687 314 691 -24 15 -418 24 -595
13z m15 -660 c-1 -5 -72 -159 -159 -343 -138 -290 -162 -335 -182 -338 -13 -1
-89 -16 -169 -32 -876 -178 -1673 -738 -2161 -1516 -270 -431 -441 -928 -500
-1454 -17 -147 -17 -572 -1 -715 51 -440 169 -838 359 -1207 l66 -128 -35 -67
c-20 -38 -95 -184 -168 -326 -72 -141 -135 -257 -140 -257 -10 0 -130 185
-211 325 -267 466 -450 1034 -503 1565 -9 85 -21 198 -27 250 -29 247 33 845
126 1215 130 516 404 1072 738 1500 592 758 1480 1299 2407 1469 126 23 349
51 465 59 28 2 60 4 73 5 12 1 22 -1 22 -5z"/>
<path d="M6890 6719 c0 -1305 -4 -2369 -9 -2367 -9 3 -1077 1011 -1123 1059
l-28 29 0 1212 c0 682 -4 1208 -9 1203 -9 -10 -1381 -3267 -1381 -3279 0 -3
313 -6 695 -6 l695 0 0 255 c0 140 3 255 6 255 21 0 1296 -1198 1289 -1211 -8
-11 -284 -227 -750 -585 -518 -399 -578 -443 -587 -438 -4 3 -8 124 -8 270 l0
264 -918 0 -918 0 -606 -1368 -606 -1367 22 -18 c41 -34 463 -237 626 -301
416 -162 819 -258 1300 -308 164 -17 696 -17 860 0 69 7 186 22 260 33 1340
195 2536 961 3282 2104 636 973 889 2147 712 3305 -221 1444 -1095 2700 -2380
3421 -115 65 -339 176 -401 200 l-23 9 0 -2371z m374 1374 c465 -324 868 -758
1155 -1247 225 -382 419 -903 500 -1341 136 -731 53 -1555 -230 -2270 -325
-822 -992 -1577 -1784 -2020 -482 -270 -1044 -438 -1620 -486 -178 -15 -607
-6 -775 15 -463 60 -858 176 -1268 373 -115 55 -132 66 -127 83 7 21 264 552
271 559 2 2 63 -24 135 -58 480 -227 933 -331 1444 -331 627 0 1185 151 1713
464 389 231 768 578 1026 940 354 495 575 1101 627 1715 15 175 7 548 -16 711
-108 801 -461 1500 -1031 2045 l-105 100 -2 403 c-1 221 0 402 2 402 2 0 40
-25 85 -57z m-414 -5138 l0 -495 -577 0 -577 0 31 28 c587 512 1111 962 1120
962 2 0 3 -223 3 -495z"/>
</g>
</svg>
